<?xml version="1.0" encoding="utf-8"?>
<!-- Generator: Adobe Illustrator 18.0.0, SVG Export Plug-In . SVG Version: 6.00 Build 0)  -->
<!DOCTYPE svg PUBLIC "-//W3C//DTD SVG 1.1//EN" "http://www.w3.org/Graphics/SVG/1.1/DTD/svg11.dtd">
<svg version="1.1"
	 id="svg2" xmlns:svg="http://www.w3.org/2000/svg" xmlns:cc="http://creativecommons.org/ns#" xmlns:dc="http://purl.org/dc/elements/1.1/" xmlns:rdf="http://www.w3.org/1999/02/22-rdf-syntax-ns#"
	 xmlns="http://www.w3.org/2000/svg" xmlns:xlink="http://www.w3.org/1999/xlink" x="0px" y="0px" viewBox="34 34 76 76"
	 enable-background="new 34 34 76 76" xml:space="preserve">
<g id="layer1">
	<path id="rect2985" d="M47,34.1c0,7.4-6,13.4-13.4,13.4v11.3c7.4,0,13.4,6,13.4,13.4s-6,13.4-13.4,13.4v11.3
		c7.4,0,13.4,6,13.4,13.4h11.3c0-7.4,6-13.4,13.4-13.4s13.4,6,13.4,13.4h11.3c0-7.4,6-13.4,13.4-13.4V85.5c-7.4,0-13.4-6-13.4-13.4
		c0-7.4,6-13.4,13.4-13.4V47.5c-7.4,0-13.4-6-13.4-13.4H85.1c0,7.4-6,13.4-13.4,13.4s-13.4-6-13.4-13.4H47z"/>
	<path id="path3892" fill="none" stroke="#FF0000" stroke-dasharray="2,1" d="M52.8,27.4v92.2"/>
	<path id="path3916" fill="none" stroke="#FF0000" stroke-dasharray="2,1" d="M91,27.7V119"/>
	<path id="path3918" fill="none" stroke="#FF0000" stroke-dasharray="2,1" d="M28,53.7h89.6"/>
	<path id="path3922" fill="none" stroke="#FF0000" stroke-dasharray="2,1" d="M27.4,90.4c89.3,0,89.6,0,89.6,0"/>
</g>
</svg>
